<?xml version="1.0" encoding="UTF-8"?>
<svg id="Layer_1" data-name="Layer 1" xmlns="http://www.w3.org/2000/svg" viewBox="0 0 1084.12 765.75">
  <defs>
    <style>
      .cls-1 {
        fill: #fff;
      }
    </style>
  </defs>
  <path class="cls-1" d="M338.61,302.8l19.29,22.64,31.54,37.53,60.04,70.55,30.72,36.35,7.77,9.17,9.83,12.19c6.85,8.49,13.95,16.48,21.24,24.72l6.54,7.4,11.43,13.36c.96,1.12,5.02.44,6.01-.75l11.66-13.87,27.28-32.79,6.32-7.68,24.13-28.79,5.31-6.74,46-54.74,25.45-30.64,6.31-7.84,61.61-74.05c2.8-3.37,6.51-6.97,8.06-10.57-1.42-5.42-5.67-8.6-8.91-12.44l-30.24-35.76-20.23-23.73-52.25-61.5-29.02-33.97-19.15-22.87-28.18-32.78-10.94-12.97-13.49-15.51-9.01-11.09c-1.82-2.24-4.27-4.95-7.4-5.63-5.16,4.57-8.88,9.7-13.22,14.86l-29.22,34.7-13.21,15.82-5,5.99-6.19,7.7-10.1,11.91-22.34,26.53-9.04,10.97-12.72,15.41-20.5,24.24-16.85,20.35-19.67,23.14-14.96,18.13-29.38,35.45c-2.12,2.56-2.56,5.98-.23,8.69l24.88,28.91Z"/>
  <path class="cls-1" d="M1082.6,349.12l-61.08-15.65-30.6-7.58-38.72-9.98-35.42-8.69-63-15.86-39.52-9.83c-3.17-.79-10.4-3.57-13.18-.65l-24.8,26.05-18.58,20.34-32.02,34.86-35.31,38.6-13.58,14.54-58.02,62.71c-1.5,1.62-3.49,5.09-1.62,6.7,2.63,2.26,6.59,2.26,9.85,3.07l28.05,6.97,9.73,2.47,16.53,4.3,54.94,13.7,20.99,5.23,78.05,19.71,56.87,14.14c4.53,1.13,7.89-.55,10.84-3.74l36.46-39.47,34.32-37.59,29.57-32.33,16.92-17.98,10.56-11.52,11.48-12.53,13.48-14.37,12.06-13.23,12.68-13.93c1.55-1.7,5.87-7.49,2.07-8.46Z"/>
  <path class="cls-1" d="M307.59,523.56l21.81-5.41,66.08-17,14.45-4.05,12.74-3.29,38.26-9.76c1.05-.27,2.79-1.57,3.43-2.32.63-.75-.21-3.55-.91-4.28l-14.49-15.13-8-8.08-11.44-11.78-18.45-19.18-18.77-19.29-16.19-16.71-18.82-19.43-14.26-15.58-31.26-31.82-8.76-9.01-25.72-26.34c-2.79-.2-6.75-.45-9.46.26l-79.98,20.85-18.28,4.67-45.1,11.75-119.97,31.06c-1.78.46-3.47,1.29-4.17,2.18-.7.9-.3,4.21.62,5.17l16.41,17.23,35.08,35.82,26.56,27.42,38.74,40.41,13.47,14.15,26.99,28.07,26.29,26.63c2.25,2.28,5.5,3.24,8.88,2.37l77.03-19.86,37.17-9.72Z"/>
  <path class="cls-1" d="M878.81,596.93c-9.24-4.17-18.57-6.81-28.66-8.39-1.64-.26-4.13-1.47-4.63-2.82-.39-1.04.38-3.39,1.14-4.39,4.08-5.35,14.5-21.55,13.06-28.69-5.99-2.46-11.07-3.59-16.93-4.96-3.23-.76-8.86-3.93-12.09-.11-7.23,17.45-21.72,34.74-41.95,38.33-12.25,2.18-25.11.34-37.54.55-10.64.18-19.33-6.31-27.09-12.65-8.64-7.06-15.52-19.78-17.64-30.81-3.84-20.07,1.52-14.4.22-28.6-3.49-1.13-6.68-2.16-9.88-2.97l-12.26-3.1c-1.48-.37-4.64-.66-5.7.18-3.89,3.11-4.47,14.12-4.91,19.13-.71,8.11-.72,13.54,1.56,21.72,2.84,10.15,6.04,20.12,12.17,28.77,1.66,2.35,4.69,4.95,2.21,8.5l-55.39.05c-1.01,0-3.27-1.9-3.21-2.84.06-.95.76-3.01,1.4-3.73,5.31-6.01,9.45-11.9,13.14-18.9,10.42-19.77,12.66-31.22,15.52-53.59.48-3.76-2.23-7.85-6.12-7.84l-29.46.12c-1.22,0-3.76,1.05-3.96,2-.16.76-.4,2.46-.53,3.64l-1.32,11.92c-.35,3.18-1.62,7.01-2.54,10.24-3.24,11.33-9.98,20.71-17.42,29.45-10.34,12.16-30.51,23.94-46.72,25.24-7.78.62-16.07.86-23.83-.09-25.08-3.06-49.53-22.91-59.28-45.52-2.53-5.87-5.3-12.28-6.16-18.55l-2.18-15.97c-1.73-1.18-5.33-2.57-7.22-2.55l-24.92.26c-2.07.02-4.86.79-5.89,2.03-1.94,2.33.25,19.41,1.58,24.74,6.5,26.11,11.09,34.25,26.97,56,.24,1.2-1.88,3.92-3.01,3.92l-45.98.09c-2.68,0-5.55-.93-8.22-2.37,8.3-12.12,12.38-24.96,14.69-39.41,1.2-7.48-.27-31.49-4.06-34.19-1.14-.81-4.67-1.27-6.03-.9l-16.67,4.51c-2.32.63-5.52,1.41-6.46,2.91-1.24,1.98-.79,5.27-.22,7.53,6.28,25.07-13.49,57.2-31.43,60.59-20.07,3.79-42.1-.3-62,1.46-8.99.79-21.99-12.31-26.29-18.3-9.8-13.65-7.41-20.37-14.74-18.55l-24.08,5.95c-5.79,5.46,12.22,28.76,11.6,30.53-.3.85-2.12,2.83-3.05,3.14l-16.25,5.41c-6.17,2.05-11.94,5.79-13.35,12.59-2.75,13.27,25.92,19.12,34.36,21.03l9.75,2.21c2.74.62,6.48,1.48,9.95,1.48h582.99c7.65,0,14.87-3.14,21.95-4.33,8.46-1.42,34.57-8.32,31.9-20.42-.92-4.16-4.94-8.88-8.92-10.67Z"/>
  <path class="cls-1" d="M855.2,645.5l-14.22-.62-55.73.02-10.29.23c-3.88.09-9.67-.24-13.41,1.01l-130.69,43.89c-7.36,2.47-12.89,3.68-20.36,1.18l-74.77-24.97-23.35-7.76-19.55-6.47-8.06-2.95c-8.64-3.16-17.23-4.38-26.5-4.39l-69.76-.04c-3.8,0-7.68,1.15-11.8,2.27l-.14,108.28c0,3.74-.36,7.23,1.93,10.13l85.89.02c3.25,0,4.96-1.92,4.96-5v-71.68c2.38-1.55,5.88-1.73,8.48-.87l34.69,11.42,56.96,18.81,10.3,3.55,8.98,3.12,20.52,6.7c5.25,1.71,10.52,2.82,16.09.93l26.08-8.84,14.1-4.76,57-19.03,40.72-13.38c1.93-.63,4.06,1.35,4.06,3.62l.04,69.19c0,2.42,1.57,5.87,3.27,6.38,1.79.54,4.91-.02,6.96-.02l79.46-.16c1.78,0,3.96-2.23,3.96-4.01l-.02-111.81c0-3.35-3.24-3.89-5.81-4.01Z"/>
  <path class="cls-1" d="M245.61,668.59c-3,0-5.92.96-7.86,2.82l.03,88.89c0,1.3,1.68,4.82,2.93,4.97l84.17.05c2.38,0,4.53-3.39,4.53-5.16l.04-88.48c-2.18-1.81-5.05-3.08-7.91-3.09l-75.94-.02Z"/>
  <path class="cls-1" d="M325.53,636.73l-82.73-.05c-2.51,0-5.08,2.54-5.08,4.57l.05,17.35c0,1.45,2.24,3.79,3.82,3.78l82.97-.02c2.41,0,4.77-2.6,4.81-4.93l.2-13.98c.03-2.01-1.87-6.72-4.04-6.72Z"/>
</svg>